<?xml version="1.0" encoding="utf-8"?>
<!-- Generator: Adobe Illustrator 25.4.1, SVG Export Plug-In . SVG Version: 6.00 Build 0)  -->
<svg version="1.1" id="レイヤー_1" xmlns="http://www.w3.org/2000/svg" xmlns:xlink="http://www.w3.org/1999/xlink" x="0px"
	 y="0px" viewBox="0 0 437.87 92.51" style="enable-background:new 0 0 437.87 92.51;" xml:space="preserve">
<style type="text/css">
	.st0{fill:#CA1C1D;}
	.st1{fill:#231815;}
</style>
<g>
	<path class="st0" d="M41.93,62.65c0,0,8.97-13.97,25.35-14.47C84.99,47.64,92.9,58.96,92.9,58.96s-7.61-5.51-24.75-5.62
		C52.17,53.23,41.93,62.65,41.93,62.65z"/>
	<path class="st0" d="M30.76,84.49c0,0,5.89-15.22,21.35-21.7c15.23-6.38,31.46-1.27,31.46-1.27s-13.31-1.26-28.9,5.67
		C38.53,74.37,30.76,84.49,30.76,84.49z"/>
	<path class="st0" d="M51.94,44.11c0,0-16.58-0.78-25.2-14.72c-9.32-15.07-3.48-27.58-3.48-27.58s-0.97,9.34,7.51,24.25
		C38.67,39.96,51.94,44.11,51.94,44.11z"/>
	<path class="st0" d="M76.45,42.87c0,0-16.13,2.51-29.47-7.64c-13.14-10-16.83-26.61-16.83-26.61s5.56,12.16,19.36,22.19
		C63.8,41.19,76.45,42.87,76.45,42.87z"/>
	<path class="st0" d="M30.89,44.71c0,0,7.61,14.75-0.15,29.19C22.36,89.5,8.6,90.7,8.6,90.7s8.58-3.83,17.25-18.63
		C33.93,58.28,30.89,44.71,30.89,44.71z"/>
	<path class="st0" d="M17.56,24.11c0,0,10.23,12.71,8.12,29.34c-2.09,16.38-14.63,27.88-14.63,27.88s7.75-10.9,9.54-27.86
		C22.43,35.9,17.56,24.11,17.56,24.11z"/>
	<g>
		<path class="st1" d="M113.73,61.06l1.46-4.82c6.63,2.11,12.95,3.31,20.43,3.31c4.32,0,14.2-0.75,14.2-5.87
			c0-3.86-5.32-4.12-14.15-4.62c-10.04-0.5-20.78-1.1-20.78-10.24c0-9.29,11.04-10.89,19.22-10.89c5.97,0,12.85,0.85,18.57,2.21
			l-1.15,4.97c-5.07-1.2-11.39-2.11-18.27-2.11c-3.26,0-12.85,0.4-12.85,5.52c0,4.62,7.68,5.02,15.56,5.37
			c9.89,0.4,19.42,1.25,19.42,9.54c0,9.19-11.85,11.14-20.73,11.14C127.84,64.58,120.56,63.42,113.73,61.06z"/>
		<path class="st1" d="M164.94,63.82V28.69h27.81c7.73,0,12.8,2.36,12.8,8.93c0,4.32-2.31,6.42-5.72,7.68
			c4.77,1.05,8.23,3.36,8.23,8.83c0,5.72-3.61,9.69-12.65,9.69C195.41,63.82,164.94,63.82,164.94,63.82z M170.36,33.76v9.44h21.28
			c5.57,0,8.83-0.7,8.83-4.62c0-3.51-2.56-4.82-7.73-4.82H170.36z M170.36,48.26v10.49h25.05c5.37,0,7.58-2.01,7.58-5.42
			c0-4.12-3.36-5.07-8.78-5.07C194.21,48.26,170.36,48.26,170.36,48.26z"/>
		<path class="st1" d="M252.88,63.82l-5.47-15.06l-4.32-12.5l-4.37,12.5l-5.47,15.06h-5.77l-15.46-35.14h5.92l6.58,15.06L230.2,57
			l4.62-13.3l5.42-15.01h5.67l5.47,15.06L255.95,57l5.67-13.25l6.63-15.06h5.87l-15.41,35.14L252.88,63.82L252.88,63.82z"/>
		<path class="st1" d="M294.7,36.72c11.64,0,18.07,5.82,18.07,13.9s-6.42,13.95-18.07,13.95c-11.64,0-18.07-5.87-18.07-13.95
			S283.06,36.72,294.7,36.72z M294.7,59.56c8.23,0,12.5-3.81,12.5-8.93c0-5.17-4.27-8.88-12.5-8.88c-8.28,0-12.55,3.71-12.55,8.88
			C282.16,55.74,286.42,59.56,294.7,59.56z"/>
		<path class="st1" d="M321.31,37.67l5.22-0.6l0.15,4.72l0.05,0.05c4.27-3.81,8.98-5.37,15.16-5.07l-0.25,5.27
			c-5.17-0.5-11.19,0.45-14.91,4.22v17.57h-5.42L321.31,37.67L321.31,37.67z"/>
		<path class="st1" d="M387.52,63.82h-8.23l-16.56-11.04h-6.78v11.04h-5.42V28.54l5.42-0.6v20.48h6.88l16.97-10.94h7.83L367.6,50.63
			L387.52,63.82z"/>
		<path class="st1" d="M394.39,57.4c6.98,1.61,11.14,2.16,16.46,2.16c3.46,0,12.9-0.3,12.9-3.71c0-3.01-5.92-2.96-12.35-3.01
			c-8.13-0.2-17.42-0.75-17.42-7.73c0-7.93,10.94-8.38,16.91-8.38c4.87,0,10.24,0.5,16.06,1.51l-0.9,5.02
			c-6.22-1.1-10.54-1.46-16.11-1.46c-5.12,0-10.44,0.35-10.44,3.31c0,2.96,5.52,2.96,11.75,3.01c8.23,0.1,18.02,0.4,18.02,7.68
			c0,8.28-13.75,8.78-19.02,8.78c-5.87,0-10.34-0.55-16.92-2.21L394.39,57.4z"/>
	</g>
</g>
</svg>
